<svg id="レイヤー_1" data-name="レイヤー 1" xmlns="http://www.w3.org/2000/svg" viewBox="0 0 615.62 431.09"><defs><style>.cls-1{fill:#fff;}.cls-2{stroke:#000;stroke-miterlimit:10;}</style></defs><circle class="cls-1" cx="455.12" cy="270.59" r="160"/><path d="M511.5,218a159.51,159.51,0,1,1-112.78,46.72A158.43,158.43,0,0,1,511.5,218m0-1A160.5,160.5,0,1,0,672,377.5,160.5,160.5,0,0,0,511.5,217Z" transform="translate(-56.38 -106.91)"/><path d="M391,269.7a245.77,245.77,0,0,1,1.09-63.37q1.31-8.81,3.25-17.49l-2.74.36c10.53,14.07,27.25,20.64,41.78,29.58a84.44,84.44,0,0,1,11.93,8.67c1.44,1.28,3.57-.84,2.12-2.12-12.93-11.5-29.71-17.1-43.26-27.68a52.94,52.94,0,0,1-10-10c-.7-.94-2.43-1-2.74.36a248.66,248.66,0,0,0-5.81,63.44c.22,6.08.69,12.16,1.36,18.22.21,1.89,3.22,1.91,3,0Z" transform="translate(-56.38 -106.91)"/><path d="M578.23,234.17c9.07-5.93,19.25-9.71,29.61-12.69,11-3.16,22.11-5.71,33.18-8.47l9-2.23,4.35-1.08c.65-.16.69-.34.82.36s.12,1.49.19,2.22l1.51,18.28q1.5,18,3,36.08c.26,3.15.58,6.41-.09,9.53a18.14,18.14,0,0,1-3.23,6.74c-2.87,4-6.3,7.77-6.76,12.93-.18,1.92,2.82,1.91,3,0,.41-4.51,4-8,6.45-11.56a20.74,20.74,0,0,0,3.23-6.44,26.84,26.84,0,0,0,.61-8.48c-.74-12.53-2.06-25.05-3.1-37.56l-1.57-19c-.18-2.11,0-5.59-2.67-6.16-1.26-.26-2.67.32-3.87.62l-4.84,1.2c-11.91,3-23.86,5.78-35.71,9-12,3.25-24,7.31-34.57,14.18-1.61,1-.1,3.65,1.52,2.59Z" transform="translate(-56.38 -106.91)"/><path d="M603.9,246.55,619.73,240l7.8-3.21c1.3-.53,2.59-1.08,3.89-1.6a10.56,10.56,0,0,1,3.67-1c4.59-.08,3.21,6.78,2.24,9.37-1.35,3.58-3.8,6.69-6,9.79-2.56,3.61-5.06,7.4-6,11.81-.39,1.88,2.5,2.69,2.89.79,1.75-8.5,9.44-14.11,12.17-22.21,1.24-3.68,1.67-9.17-2-11.63-2.27-1.51-5-.87-7.38.06-2.9,1.15-5.77,2.37-8.65,3.56l-19.26,7.93c-1.76.72-1,3.62.79,2.89Z" transform="translate(-56.38 -106.91)"/><path d="M410.08,254.39c-4.65-5.82-9.83-12.41-9.35-20.3a12.15,12.15,0,0,1,3.95-8.6,2.86,2.86,0,0,1,2.28-1,7.07,7.07,0,0,1,2.52,1.65q2.44,1.94,4.73,4.05a87.65,87.65,0,0,1,9.64,10.47c1.19,1.52,3.3-.62,2.12-2.12a87.55,87.55,0,0,0-10-10.77q-2.72-2.46-5.61-4.7c-1.77-1.36-3.67-2.13-5.83-1.13-3.54,1.64-5.75,5.73-6.48,9.4a20.71,20.71,0,0,0,1.36,12.11c2,4.84,5.27,9,8.51,13,1.2,1.5,3.31-.63,2.12-2.13Z" transform="translate(-56.38 -106.91)"/><path d="M405.62,305.71a640.41,640.41,0,0,1,70.81-5.51q10-.22,20.06-.14a1.5,1.5,0,0,0,0-3,644,644,0,0,0-70.95,3.3q-10,1-19.92,2.35a1.54,1.54,0,0,0-1.5,1.5,1.51,1.51,0,0,0,1.5,1.5Z" transform="translate(-56.38 -106.91)"/><path d="M448.72,316a319.24,319.24,0,0,1-10,50.87,1.5,1.5,0,0,0,2.89.8A323.38,323.38,0,0,0,451.72,316c.22-1.92-2.78-1.9-3,0Z" transform="translate(-56.38 -106.91)"/><path d="M557,300.36a504.86,504.86,0,0,0,57-2.54q8.09-.82,16.13-1.91a1.54,1.54,0,0,0,1.5-1.5,1.52,1.52,0,0,0-1.5-1.5,506.29,506.29,0,0,1-56.9,4.39q-8.13.17-16.24.06a1.5,1.5,0,0,0,0,3Z" transform="translate(-56.38 -106.91)"/><path d="M591.8,317.28,584,357.58c-.37,1.88,2.53,2.69,2.89.79l7.77-40.29c.37-1.89-2.53-2.7-2.89-.8Z" transform="translate(-56.38 -106.91)"/><ellipse class="cls-2" cx="466.62" cy="284.09" rx="22.5" ry="13.5"/><path d="M522.44,402.9c-1.42,7-2.86,14.13-6.46,20.34a29.27,29.27,0,0,1-14.48,12.58A36.33,36.33,0,0,1,479.44,437a26.43,26.43,0,0,1-14-10.13A58.41,58.41,0,0,1,457,408.81c-.55-1.84-3.45-1.06-2.89.8,3.56,11.86,9.89,24.69,22.13,29.47a33.88,33.88,0,0,0,11.85,2A40.27,40.27,0,0,0,500,439.52a32.55,32.55,0,0,0,16.69-11.8c5.16-7,7-15.7,8.69-24,.39-1.89-2.5-2.69-2.89-.8Z" transform="translate(-56.38 -106.91)"/><path d="M519,407c3.1,3.95,3.75,9.26,4.89,14,1.2,5,3.07,9.77,7.31,12.94a25,25,0,0,0,7.53,3.65,43.17,43.17,0,0,0,9.19,2,18.43,18.43,0,0,0,15.53-6.21c4.61-5.05,6.7-11.68,8.66-18.1.56-1.85-2.33-2.64-2.9-.8-1.63,5.36-3.28,10.95-6.75,15.44s-8,7-13.59,6.74a36,36,0,0,1-8.76-1.77,23.08,23.08,0,0,1-7.08-3.28c-4-2.88-5.36-7.55-6.42-12.1-1.19-5.14-2.15-10.36-5.49-14.62-1.18-1.51-3.29.62-2.12,2.13Z" transform="translate(-56.38 -106.91)"/><path d="M495.21,438.69a75.2,75.2,0,0,0,1.25,24.4,57.46,57.46,0,0,0,3.46,11.16,15.77,15.77,0,0,0,6.16,7.53c6.67,3.86,14.51.15,19.32-4.89a50.38,50.38,0,0,0,6.78-9.06,33.12,33.12,0,0,0,4.29-10.53A22.65,22.65,0,0,0,535.22,445c-.65-1.85-1.39-3.83-1.15-5.83.18-1.48.88-3.15,2.38-3.69,1.81-.64,1-3.54-.79-2.89-2.78,1-4.25,3.54-4.57,6.38-.4,3.59,1.47,6.83,2.33,10.2,1.85,7.21-1.81,14.51-5.85,20.28-3.78,5.41-9.22,11.64-16.54,10.86s-9.52-9.42-11-15.29a72.87,72.87,0,0,1-1.78-26.31c.22-1.91-2.78-1.9-3,0Z" transform="translate(-56.38 -106.91)"/><path d="M57.83,106.91a1.5,1.5,0,0,0,0,3A1.5,1.5,0,0,0,57.83,106.91Z" transform="translate(-56.38 -106.91)"/></svg>